<svg width="512" height="512" viewBox="0 0 512 512" fill="none" xmlns="http://www.w3.org/2000/svg">
<g clip-path="url(#clip0_1802_11)">
<path d="M435.2 0H76.8C34.3845 0 0 34.3845 0 76.8V435.2C0 477.615 34.3845 512 76.8 512H435.2C477.615 512 512 477.615 512 435.2V76.8C512 34.3845 477.615 0 435.2 0Z" fill="#4455DD"/>
<path d="M437 152C425.145 159.864 411.226 164.04 397 164C412.209 155.04 423.597 140.805 429 124C416.393 134.658 400.505 140.66 384 141C373.118 129.854 358.914 122.539 343.521 120.151C328.128 117.762 312.376 120.431 298.628 127.756C284.88 135.08 273.879 146.666 267.275 160.774C260.67 174.882 258.82 190.751 262 206C233.993 204.521 206.611 197.169 181.63 184.42C156.65 171.672 134.63 153.812 117 132C108.373 147.61 105.847 165.867 109.912 183.233C113.976 200.6 124.342 215.839 139 226C127.937 226.156 116.987 223.761 107 219C107.269 235.108 112.933 250.661 123.085 263.17C133.237 275.679 147.292 284.422 163 288C152.544 290.731 141.607 291.073 131 289C135.575 303.27 144.49 315.757 156.5 324.72C168.51 333.683 183.018 338.675 198 339C166.357 358.196 130.009 368.235 93 368C123.995 388.235 159.998 399.472 197.001 400.458C234.004 401.445 270.554 392.144 302.584 373.589C334.614 355.035 360.866 327.955 378.418 295.366C395.97 262.776 404.134 225.954 402 189C415.196 178.209 426.958 165.775 437 152Z" fill="white"/>
</g>
<defs>
<clipPath id="clip0_1802_11">
<rect width="512" height="512" fill="white"/>
</clipPath>
</defs>
</svg>
